<?xml version="1.0" encoding="utf-8"?>
<svg id="Layer_1" x="0px" y="0px" width="64px" height="64px" viewBox="0 0 64 64" xmlns="http://www.w3.org/2000/svg">
  <circle fill="#555" cx="32" cy="32" r="32"/>
  <path fill="#FFFFFF" d="M 22.189 22.227 C 19.584 24.835 18.145 28.302 18.145 31.99 C 18.145 35.676 19.584 39.142 22.189 41.753 C 24.827 44.389 28.363 45.795 31.962 45.795 C 33.642 45.795 35.336 45.491 36.964 44.857 C 37.187 44.77 37.296 44.522 37.209 44.299 C 37.124 44.077 36.874 43.965 36.652 44.054 C 31.864 45.916 26.427 44.769 22.8 41.144 C 20.356 38.696 19.008 35.446 19.008 31.99 C 19.008 28.532 20.356 25.282 22.8 22.837 L 23.328 22.309 L 23.328 26.379 C 23.328 26.617 23.523 26.811 23.762 26.811 C 23.998 26.811 24.192 26.617 24.192 26.379 L 24.192 21.202 C 24.192 20.964 23.999 20.771 23.762 20.771 L 18.582 20.771 C 18.346 20.771 18.152 20.964 18.152 21.202 C 18.152 21.439 18.345 21.633 18.582 21.633 L 22.786 21.633 L 22.189 22.227 Z M 39.722 37.598 L 39.722 42.776 C 39.722 42.9 39.778 43.01 39.862 43.09 C 39.865 43.095 39.866 43.099 39.87 43.103 C 39.953 43.188 40.245 43.217 40.278 43.208 L 45.333 43.208 C 45.569 43.208 45.764 43.017 45.764 42.778 C 45.764 42.54 45.569 42.346 45.333 42.346 L 41.237 42.346 L 41.812 41.772 C 44.419 39.166 45.856 35.697 45.856 32.008 C 45.856 28.323 44.419 24.854 41.812 22.246 C 38.004 18.439 32.283 17.192 27.234 19.065 C 27.01 19.149 26.897 19.396 26.981 19.62 C 27.063 19.846 27.315 19.958 27.535 19.876 C 32.269 18.115 37.635 19.289 41.202 22.857 C 43.645 25.301 44.993 28.554 44.993 32.008 C 44.993 35.466 43.645 38.716 41.202 41.162 L 40.588 41.776 L 40.588 37.6 C 40.588 37.361 40.393 37.166 40.156 37.166 C 39.918 37.166 39.722 37.361 39.722 37.598 Z"/>
</svg>
