<?xml version="1.0" encoding="utf-8"?>
<!-- Generator: Adobe Illustrator 16.0.4, SVG Export Plug-In . SVG Version: 6.00 Build 0)  -->
<!DOCTYPE svg PUBLIC "-//W3C//DTD SVG 1.1//EN" "http://www.w3.org/Graphics/SVG/1.1/DTD/svg11.dtd">
<svg version="1.1" id="Layer_1" xmlns="http://www.w3.org/2000/svg" xmlns:xlink="http://www.w3.org/1999/xlink" x="0px" y="0px"
	 width="64px" height="64px" viewBox="0 0 64 64" enable-background="new 0 0 64 64" xml:space="preserve">
<circle fill="#555" cx="32" cy="32" r="29.479"/>
<path fill="#FFFFFF" d="M22.905,22.94c-2.416,2.417-3.749,5.632-3.749,9.05c0,3.417,1.333,6.632,3.749,9.051
	c2.445,2.444,5.723,3.748,9.059,3.748c1.559,0,3.13-0.282,4.637-0.87c0.208-0.08,0.309-0.311,0.228-0.517
	c-0.079-0.207-0.31-0.31-0.517-0.227c-4.438,1.726-9.477,0.663-12.841-2.699c-2.265-2.268-3.515-5.282-3.515-8.486
	c0-3.205,1.25-6.218,3.515-8.484l0.49-0.49v3.773c0,0.22,0.18,0.4,0.402,0.4c0.219,0,0.399-0.18,0.399-0.4v-4.799
	c0-0.22-0.179-0.4-0.399-0.4h-4.801c-0.219,0-0.4,0.18-0.4,0.4s0.18,0.399,0.4,0.399h3.896L22.905,22.94z M39.159,37.19v4.8
	c0,0.115,0.051,0.216,0.129,0.291c0.003,0.004,0.004,0.008,0.008,0.012c0.077,0.078,0.347,0.105,0.378,0.097h4.686
	c0.219,0,0.4-0.177,0.4-0.398c0-0.221-0.181-0.4-0.4-0.4h-3.797l0.533-0.534c2.417-2.414,3.748-5.631,3.748-9.05
	c0-3.417-1.331-6.632-3.748-9.05c-3.53-3.529-8.834-4.686-13.514-2.949c-0.208,0.078-0.312,0.307-0.235,0.515
	c0.076,0.208,0.31,0.313,0.514,0.236c4.388-1.631,9.363-0.544,12.669,2.764c2.266,2.266,3.515,5.281,3.515,8.484
	c0,3.205-1.249,6.219-3.515,8.486l-0.568,0.568v-3.87c0-0.221-0.181-0.403-0.402-0.403C39.34,36.789,39.159,36.971,39.159,37.19z"/>
</svg>
